# 3ds Max Wavefront OBJ Exporter v0.97b - (c)2007 guruware
# File Created: 14.03.2017 12:54:41

mtllib decors.mtl

#
# object Box001
#

v  5.0511 -3.1214 8.4247
v  3.9291 -3.1214 7.7719
v  5.3977 -3.1214 5.2480
v  6.5197 -3.1214 5.9008
v  5.0511 0.8833 8.4247
v  6.5197 0.8833 5.9008
v  5.3977 0.8833 5.2480
v  3.9291 0.8833 7.7719
# 8 vertices

vn 0.0000 -1.0000 -0.0000
vn 0.0000 1.0000 -0.0000
vn 0.8643 0.0000 0.5029
vn 0.5029 0.0000 -0.8643
vn -0.8643 0.0000 -0.5029
vn -0.5029 0.0000 0.8643
# 6 vertex normals

vt 1.0000 0.0000 0.0000
vt 1.0000 1.0000 0.0000
vt 0.0000 1.0000 0.0000
vt 0.0000 0.0000 0.0000
# 4 texture coords

g Box001
usemtl wire_225087143
s 2
f 1/1/1 2/2/1 3/3/1 4/4/1 
s 4
f 5/4/2 6/1/2 7/2/2 8/3/2 
s 8
f 1/4/3 4/1/3 6/2/3 5/3/3 
s 16
f 4/4/4 3/1/4 7/2/4 6/3/4 
s 32
f 3/4/5 2/1/5 8/2/5 7/3/5 
s 64
f 2/4/6 1/1/6 5/2/6 8/3/6 
# 6 polygons

#
# object Box002
#

v  -47.0646 3.1120 -28.0000
v  -47.0646 3.1120 -37.5126
v  -38.9989 3.1120 -37.5126
v  -38.9989 3.1120 -28.0000
v  -47.0646 7.6155 -28.0000
v  -38.9989 7.6155 -28.0000
v  -38.9989 7.6155 -37.5126
v  -47.0646 7.6155 -37.5126
# 8 vertices

vn 0.0000 -1.0000 -0.0000
vn 0.0000 1.0000 -0.0000
vn 0.0000 0.0000 1.0000
vn 1.0000 0.0000 -0.0000
vn 0.0000 0.0000 -1.0000
vn -1.0000 0.0000 -0.0000
# 6 vertex normals

vt 1.0000 0.0000 0.0000
vt 1.0000 1.0000 0.0000
vt 0.0000 1.0000 0.0000
vt 0.0000 0.0000 0.0000
# 4 texture coords

g Box002
usemtl wire_148177027
s 2
f 9/5/7 10/6/7 11/7/7 12/8/7 
s 4
f 13/8/8 14/5/8 15/6/8 16/7/8 
s 8
f 9/8/9 12/5/9 14/6/9 13/7/9 
s 16
f 12/8/10 11/5/10 15/6/10 14/7/10 
s 32
f 11/8/11 10/5/11 16/6/11 15/7/11 
s 64
f 10/8/12 9/5/12 13/6/12 16/7/12 
# 6 polygons

#
# object Circle001
#

v  -16.3530 6.9777 -35.1012
v  -16.3886 6.2042 -34.8947
v  -16.5046 6.3891 -34.2221
v  -16.4606 7.3444 -34.4771
v  -15.6562 6.9777 -34.9810
v  -15.6918 6.2042 -34.7746
v  -15.7638 7.3444 -34.3570
v  -15.8078 6.3891 -34.1020
v  -17.8957 5.4420 -26.1552
v  -18.0391 3.7926 -25.3234
v  -17.3423 3.7926 -25.2032
v  -17.1989 5.4420 -26.0350
v  -16.2712 7.4593 -35.5758
v  -16.3335 8.0926 -35.2144
v  -15.5743 7.4593 -35.4556
v  -15.6367 8.0926 -35.0942
v  -17.7806 6.1438 -26.8225
v  -17.0838 6.1438 -26.7023
v  -16.1554 7.6438 -36.2469
v  -16.1554 8.3763 -36.2469
v  -15.4586 7.6438 -36.1268
v  -15.4586 8.3763 -36.1268
v  -15.9222 6.2042 -37.5991
v  -15.9578 6.9777 -37.3927
v  -15.8502 7.3444 -38.0167
v  -15.8063 6.3891 -38.2717
v  -15.2254 6.2042 -37.4790
v  -15.2610 6.9777 -37.2725
v  -15.1094 6.3891 -38.1515
v  -15.1534 7.3444 -37.8966
v  -16.3886 3.0878 -34.8947
v  -16.5046 3.0882 -34.2221
v  -15.6918 3.0878 -34.7746
v  -15.8078 3.0882 -34.1020
v  -18.1702 3.0748 -24.5631
v  -17.4734 3.0748 -24.4430
v  -15.8063 3.0882 -38.2717
v  -15.9222 3.0878 -37.5991
v  -15.2254 3.0878 -37.4790
v  -15.1094 3.0882 -38.1515
v  -15.3031 5.6749 -41.1892
v  -14.6063 5.6749 -41.0691
v  -14.3554 3.0867 -42.5240
v  -15.0523 3.0867 -42.6441
v  -16.9210 6.2401 -31.8074
v  -16.8770 7.1954 -32.0624
v  -16.9210 3.0849 -31.8074
v  -16.2242 3.0849 -31.6872
v  -16.2242 6.2401 -31.6872
v  -16.1802 7.1954 -31.9422
v  -16.0561 8.9769 -32.6620
v  -16.7529 8.9769 -32.7821
v  -17.3374 6.0911 -29.3926
v  -17.2934 7.0465 -29.6476
v  -17.3374 3.0815 -29.3926
v  -16.6406 3.0815 -29.2725
v  -16.6406 6.0911 -29.2725
v  -16.5966 7.0465 -29.5275
v  -16.4755 8.4024 -30.2297
v  -17.1723 8.4024 -30.3499
# 60 vertices

vn -0.9855 -0.0000 -0.1699
vn 0.1471 -0.5012 -0.8528
vn 0.1640 -0.2614 -0.9512
vn 0.9855 0.0000 0.1699
vn -0.1383 0.5813 0.8019
vn -0.1513 0.4556 0.8773
vn 0.0852 -0.8653 -0.4939
vn -0.1223 0.6944 0.7091
vn 0.0444 -0.9652 -0.2576
vn -0.0444 0.9652 0.2576
vn -0.1640 -0.2614 0.9512
vn 0.1640 0.2614 -0.9512
vn 0.1699 0.0000 -0.9855
vn -0.1158 0.7321 0.6713
vn -0.1699 0.0000 0.9855
vn 0.1476 0.4955 -0.8560
vn 0.0002 -1.0000 -0.0013
vn 0.0573 0.9414 -0.3324
vn 0.0398 0.9721 -0.2311
vn -0.0001 -1.0000 0.0003
vn -0.0907 0.8457 0.5259
vn -0.0385 0.9740 0.2234
vn -0.0852 0.8653 0.4939
# 23 vertex normals

g Circle001
usemtl wire_087225143
s 1
f 17//13 18//13 19//13 20//13 
s 2
f 21//14 22//15 18//15 17//14 
s 1
f 23//16 24//16 22//16 21//16 
s 2
f 25//17 26//18 27//18 28//17 
s 1
f 29//13 17//13 20//13 30//13 
s 2
f 31//19 21//14 17//14 29//19 
s 1
f 32//16 23//16 21//16 31//16 
s 2
f 33//20 25//17 28//17 34//20 
s 1
f 35//13 29//13 30//13 36//13 
s 2
f 37//21 31//19 29//19 35//21 
s 1
f 38//16 32//16 31//16 37//16 
s 2
f 36//22 30//22 32//22 38//22 
s 1
f 39//13 40//13 41//13 42//13 
s 2
f 43//23 44//23 40//23 39//23 
s 1
f 45//16 46//16 44//16 43//16 
s 2
f 42//24 41//24 46//24 45//24 
s off
f 19//13 18//13 47//13 48//13 
f 18//25 22//25 49//25 47//25 
f 22//16 24//16 50//16 49//16 
f 27//26 26//26 51//26 52//26 
f 39//13 42//13 53//13 54//13 
f 43//27 39//27 54//27 55//27 
f 45//16 43//16 55//16 56//16 
f 57//28 58//28 59//28 60//28 
f 19//13 61//13 62//13 20//13 
f 48//13 63//13 61//13 19//13 
f 50//29 64//29 63//29 48//29 
f 50//16 24//16 65//16 64//16 
f 24//16 23//16 66//16 65//16 
f 23//16 32//16 67//16 66//16 
f 30//30 68//30 67//30 32//30 
f 20//13 62//13 68//13 30//13 
f 42//31 45//31 58//31 57//31 
f 45//16 56//16 59//16 58//16 
f 56//32 53//32 60//32 59//32 
f 53//13 42//13 57//13 60//13 
f 69//13 26//13 25//13 70//13 
f 71//13 51//13 26//13 69//13 
f 52//29 51//29 71//29 72//29 
f 27//16 52//16 72//16 73//16 
f 28//16 27//16 73//16 74//16 
f 34//16 28//16 74//16 75//16 
f 33//33 34//33 75//33 76//33 
f 70//13 25//13 33//13 76//13 
f 61//13 69//13 70//13 62//13 
f 63//13 71//13 69//13 61//13 
f 72//29 71//29 63//29 64//29 
f 73//16 72//16 64//16 65//16 
f 74//16 73//16 65//16 66//16 
f 75//16 74//16 66//16 67//16 
f 76//34 75//34 67//34 68//34 
f 62//13 70//13 76//13 68//13 
f 38//25 37//25 35//25 36//25 
f 44//35 46//35 41//35 40//35 
# 54 polygons

#
# object Object001
#

v  -41.2870 -11.6212 -21.8577
v  -50.0938 -11.3855 -24.6898
v  -50.0938 -11.6212 -17.3130
v  -41.2870 -11.6212 -14.6306
v  -15.3169 -11.8862 -17.9829
v  -21.0892 -11.7683 -19.6331
v  -22.2534 -11.7683 -13.3419
v  -16.4849 -11.8862 -11.9682
v  -36.5506 -11.6212 -21.1411
v  -36.5506 -11.6212 -13.9141
v  -30.4644 -11.6505 -20.9949
v  -30.4644 -11.6505 -13.7678
v  -24.4347 -11.7683 -1.6207
v  -18.6624 -11.8862 0.0296
v  -29.3890 -12.2077 4.2463
v  -21.6434 -12.2666 6.2455
v  -11.7141 3.1175 -24.1135
v  -2.0068 1.1815 -23.7226
v  -4.5448 2.8757 -29.3783
v  -0.2713 -2.9682 18.1651
v  5.3855 -2.9682 15.9290
v  7.6471 -2.9682 11.4006
v  4.7037 -2.9682 3.7216
v  -3.5088 -2.9682 16.5504
v  -8.1665 -2.9682 4.8417
v  -4.4474 -2.9682 0.8005
v  6.5669 -1.0249 -3.4651
v  -2.4363 -1.0249 -6.6121
v  6.8269 1.1185 -13.9011
v  -0.7943 1.1185 -15.7452
v  5.0506 1.5291 -24.1765
v  2.3051 2.8757 -30.2393
v  -13.5901 -8.3291 7.7481
v  -11.6452 -8.3291 16.7049
v  -23.9609 -12.6471 12.5340
v  -42.4229 3.3824 -44.0900
v  -41.2870 3.3824 -17.0843
v  -36.5506 3.3824 -15.9934
v  -36.8385 3.3824 -48.7004
v  -10.2945 3.1175 -45.5832
v  -52.9033 3.3824 -31.6848
v  -50.0938 3.3824 -19.6918
v  -1.6864 2.8525 -42.8179
v  -29.7262 3.3576 -48.9708
v  -30.4644 3.3532 -16.7459
v  -39.7385 8.9253 -48.8066
v  -45.3230 8.3722 -44.1962
v  -15.5345 6.8529 -49.4527
v  -27.8045 8.9005 -50.3892
v  -52.8880 7.8873 -31.6848
v  -36.1083 3.3824 -50.9616
v  -31.4581 3.3576 -51.2320
v  -31.4581 8.9005 -52.7708
v  -36.1083 8.9253 -52.5005
v  -32.2265 -12.6471 9.2932
v  -53.4615 1.5437 -18.3592
v  -41.2870 0.8367 -14.4192
v  -30.4644 0.8075 -14.0808
v  -11.7141 0.5717 -21.4483
v  -36.5506 0.8367 -13.3282
v  -41.2870 -11.1498 -22.2321
v  -30.4644 -11.1790 -21.8937
v  -11.7141 -11.4148 -29.2612
v  -36.5506 -11.1498 -21.1411
v  -56.4622 1.8193 -31.6848
v  -50.0938 -17.1254 -24.8395
v  -41.2870 -17.1254 -22.2321
v  -30.4644 -17.1546 -21.8937
v  -11.7141 -17.3903 -29.2612
v  -36.5506 -17.1254 -21.1411
v  -50.0938 -17.1254 7.3641
v  -41.2870 -17.1254 9.9715
v  -30.4644 -17.1546 10.3099
v  -11.7141 -17.3903 2.9424
v  -36.5506 -17.1254 11.0624
v  -60.3810 -17.1254 -24.8395
v  -60.3810 -17.1254 7.3641
# 77 vertices

vn 0.0041 1.0000 0.0079
vn 0.0095 1.0000 0.0018
vn 0.0000 1.0000 -0.0000
vn 0.0024 1.0000 -0.0000
vn 0.0065 1.0000 0.0006
vn -0.0022 0.9995 0.0318
vn 0.0254 0.9995 0.0202
vn 0.0153 0.9965 0.0822
vn 0.0290 0.9982 0.0529
vn -0.0162 0.9987 0.0481
vn -0.1035 0.9938 0.0412
vn -0.1512 0.9875 0.0439
vn -0.0167 0.9985 0.0524
vn -0.0389 0.9930 0.1113
vn -0.0351 0.9932 0.1106
vn -0.0204 0.9972 0.0714
vn -0.0184 0.9982 0.0565
vn -0.0157 0.9983 0.0564
vn 0.0018 0.9973 0.0738
vn -0.2942 0.9546 0.0475
vn -0.2773 0.9571 0.0842
vn -0.2232 0.9733 -0.0534
vn -0.2036 0.9790 -0.0084
vn 0.0000 1.0000 0.0000
vn 0.0012 1.0000 0.0001
vn 0.0011 1.0000 -0.0000
vn 0.0091 1.0000 -0.0000
vn 0.0171 0.9998 -0.0063
vn 0.0039 1.0000 0.0002
vn 0.5043 0.5925 0.6282
vn -0.0659 0.7358 0.6740
vn 0.7182 0.4573 0.5245
vn 0.0518 0.4923 0.8689
vn 0.0020 1.0000 -0.0005
vn -0.5491 0.5410 0.6370
vn 0.6889 0.5205 0.5044
vn -0.0085 0.9995 0.0315
vn -0.1091 0.9110 0.3977
vn 0.1697 0.8926 0.4178
vn -0.0972 0.9014 0.4219
vn 0.0545 0.9043 0.4233
vn -0.1956 -0.7649 0.6138
vn 0.2253 -0.7787 0.5855
vn -0.1371 -0.7917 0.5953
vn 0.0722 -0.7972 0.5994
vn -0.2233 0.9731 0.0564
vn -0.2761 -0.0251 0.9608
vn 0.3657 0.0000 0.9307
vn -0.2245 0.0000 0.9745
vn 0.1227 0.0000 0.9924
vn -0.0000 1.0000 -0.0000
vn 0.0062 1.0000 -0.0000
# 52 vertex normals

g Object001
usemtl wire_154185229
s off
f 77//36 78//36 79//36 80//36 
f 81//37 82//37 83//37 84//37 
f 85//38 77//38 80//38 86//38 
f 87//39 85//39 86//39 88//39 
f 82//40 87//40 88//40 83//40 
f 84//37 83//37 89//37 90//37 
f 90//41 89//41 91//41 92//41 
s 1
f 93//42 94//43 95//44 
f 96//38 97//38 98//38 99//45 
f 100//46 96//38 99//45 101//47 
f 101//47 99//45 102//48 
f 99//45 103//49 104//50 102//48 
f 104//50 103//49 105//51 106//52 
f 106//52 105//51 107//53 94//43 
f 94//43 107//53 108//54 95//44 
f 101//47 109//55 110//56 100//46 
f 109//55 92//57 111//58 110//56 
f 112//59 113//59 114//60 115//61 
f 95//44 116//62 93//42 
f 117//59 118//38 113//59 112//59 
f 108//54 119//63 116//62 95//44 
f 93//42 116//62 120//64 121//64 
f 114//60 121//64 120//64 115//61 
s off
f 112//65 115//65 122//65 123//65 
f 120//66 116//66 124//66 125//66 
f 117//67 112//67 123//67 126//67 
f 127//68 128//68 129//68 130//68 
f 115//69 120//69 128//69 127//69 
f 120//70 125//70 129//70 128//70 
f 122//71 115//71 127//71 130//71 
f 111//72 92//72 91//72 131//72 
f 113//73 118//73 132//73 133//73 
f 93//74 121//74 134//74 135//74 
f 114//75 113//75 133//75 136//75 
f 121//76 114//76 136//76 134//76 
f 133//77 132//77 78//77 137//77 
f 135//78 134//78 138//78 139//78 
f 136//79 133//79 137//79 140//79 
f 134//80 136//80 140//80 138//80 
f 118//81 117//81 141//81 132//81 
f 137//82 78//82 142//82 143//82 
f 139//83 138//83 144//83 145//83 
f 140//84 137//84 143//84 146//84 
f 138//85 140//85 146//85 144//85 
f 143//86 142//86 147//86 148//86 
f 145//87 144//87 149//87 150//87 
f 146//38 143//38 148//38 151//38 
f 144//39 146//39 151//39 149//39 
f 147//38 142//38 152//38 153//38 
# 46 polygons - 3 triangles

